ffmpeg started on 2025-06-05 at 19:41:00
Report written to "D:\Convert\FFMetrics\reports\ssim_report-6.txt"
Log level: 32
Command line:
ffmpeg -hide_banner -nostdin -i "G:\\\xc0\xed\xe8\xec\xe5\\\xce\xed\xe3\xee\xe8\xed\xe3\xe8\\!_36_\xce\xf1\xe5\xed\xfc_2024\\DreamCast\\\xcd\xe0\xef\xe0\xe4\xe5\xed\xe8\xe5 \xee\xe4\xe8\xed\xee\xf7\xea\xe8 \xed\xe0 \xe8\xed\xee\xe9 \xec\xe8\xf0\\[DC] Hitoribocchi no Isekai Kouryaku - 05_Telegram_HEVC.mkv" -i "G:\\\xc0\xed\xe8\xec\xe5\\\xce\xed\xe3\xee\xe8\xed\xe3\xe8\\!_36_\xce\xf1\xe5\xed\xfc_2024\\DreamCast\\\xcd\xe0\xef\xe0\xe4\xe5\xed\xe8\xe5 \xee\xe4\xe8\xed\xee\xf7\xea\xe8 \xed\xe0 \xe8\xed\xee\xe9 \xec\xe8\xf0\\[DC] Hitoribocchi no Isekai Kouryaku - 05_Telegram.mp4" -lavfi "[0:v]settb=AVTB,setpts=PTS-STARTPTS,format=pix_fmts=yuv420p10,fps=24000/1001,scale=1920:1080:flags=bicubic[main];[1:v]settb=AVTB,setpts=PTS-STARTPTS,format=pix_fmts=yuv420p,fps=24000/1001,scale=1920:1080:flags=bicubic[ref];[main][ref]ssim=eof_action=endall:stats_file='D\\:/Convert/FFMetrics/logs/ssim_logfile-6.txt'" -f null -
Input #0, matroska,webm, from 'G:\Аниме\Онгоинги\!_36_Осень_2024\DreamCast\Нападение одиночки на иной мир\[DC] Hitoribocchi no Isekai Kouryaku - 05_Telegram_HEVC.mkv':
  Metadata:
    COMPATIBLE_BRANDS: isomiso2avc1mp41
    MAJOR_BRAND     : isom
    MINOR_VERSION   : 512
    ENCODER         : Lavf61.7.100
  Duration: 00:23:49.08, start: -0.021000, bitrate: 1228 kb/s
  Stream #0:0: Video: hevc (Main 10), yuv420p10le(tv, bt709, progressive), 1920x1080 [SAR 1:1 DAR 16:9], 23.98 fps, 23.98 tbr, 1k tbn (default)
      Metadata:
        HANDLER_NAME    : VideoHandler
        VENDOR_ID       : [0][0][0][0]
        ENCODER         : Lavc61.19.100 libx265
        BPS             : 1029961
        DURATION        : 00:23:48.969708333
        NUMBER_OF_FRAMES: 34261
        NUMBER_OF_BYTES : 183972872
        _STATISTICS_WRITING_APP: mkvpropedit v66.0.0 ('Josie') 64-bit
        _STATISTICS_WRITING_DATE_UTC: 2025-05-31 10:19:39
        _STATISTICS_TAGS: BPS DURATION NUMBER_OF_FRAMES NUMBER_OF_BYTES
  Stream #0:1: Audio: aac (LC), 48000 Hz, stereo, fltp (default)
      Metadata:
        HANDLER_NAME    : SoundHandler
        VENDOR_ID       : [0][0][0][0]
        ENCODER         : Lavc61.19.100 aac
        BPS             : 194157
        DURATION        : 00:23:49.077000000
        NUMBER_OF_FRAMES: 66989
        NUMBER_OF_BYTES : 34683306
        _STATISTICS_WRITING_APP: mkvpropedit v66.0.0 ('Josie') 64-bit
        _STATISTICS_WRITING_DATE_UTC: 2025-05-31 10:19:39
        _STATISTICS_TAGS: BPS DURATION NUMBER_OF_FRAMES NUMBER_OF_BYTES
Input #1, mov,mp4,m4a,3gp,3g2,mj2, from 'G:\Аниме\Онгоинги\!_36_Осень_2024\DreamCast\Нападение одиночки на иной мир\[DC] Hitoribocchi no Isekai Kouryaku - 05_Telegram.mp4':
  Metadata:
    major_brand     : isom
    minor_version   : 512
    compatible_brands: isomiso2avc1mp41
    encoder         : Lavf61.1.100
  Duration: 00:23:49.03, start: 0.000000, bitrate: 3660 kb/s
  Stream #1:0[0x1](und): Video: h264 (High) (avc1 / 0x31637661), yuv420p(tv, bt709, progressive), 1920x1080 [SAR 1:1 DAR 16:9], 3512 kb/s, 23.98 fps, 23.98 tbr, 24k tbn (default)
      Metadata:
        handler_name    : VideoHandler
        vendor_id       : [0][0][0][0]
        encoder         : Lavc61.3.100 h264_qsv
  Stream #1:1[0x2](und): Audio: aac (HE-AACv2) (mp4a / 0x6134706D), 48000 Hz, stereo, fltp, 144 kb/s (default)
      Metadata:
        handler_name    : SoundHandler
        vendor_id       : [0][0][0][0]
Stream mapping:
  Stream #0:0 (hevc) -> settb:default
  Stream #1:0 (h264) -> settb:default
  ssim:default -> Stream #0:0 (wrapped_avframe)
  Stream #0:1 -> #0:1 (aac (native) -> pcm_s16le (native))
Output #0, null, to 'pipe:':
  Metadata:
    COMPATIBLE_BRANDS: isomiso2avc1mp41
    MAJOR_BRAND     : isom
    MINOR_VERSION   : 512
    encoder         : Lavf61.7.100
  Stream #0:0: Video: wrapped_avframe, yuv420p10le(tv, bt709, progressive), 1920x1080 [SAR 1:1 DAR 16:9], q=2-31, 200 kb/s, 23.98 fps, 23.98 tbn
      Metadata:
        encoder         : Lavc61.19.100 wrapped_avframe
  Stream #0:1: Audio: pcm_s16le, 48000 Hz, stereo, s16, 1536 kb/s (default)
      Metadata:
        HANDLER_NAME    : SoundHandler
        VENDOR_ID       : [0][0][0][0]
        _STATISTICS_TAGS: BPS DURATION NUMBER_OF_FRAMES NUMBER_OF_BYTES
        BPS             : 194157
        DURATION        : 00:23:49.077000000
        NUMBER_OF_FRAMES: 66989
        NUMBER_OF_BYTES : 34683306
        _STATISTICS_WRITING_APP: mkvpropedit v66.0.0 ('Josie') 64-bit
        _STATISTICS_WRITING_DATE_UTC: 2025-05-31 10:19:39
        encoder         : Lavc61.19.100 pcm_s16le
frame=  159 fps=0.0 q=-0.0 size=N/A time=00:00:06.63 bitrate=N/A speed=12.8x    frame=  294 fps=282 q=-0.0 size=N/A time=00:00:12.26 bitrate=N/A speed=11.8x    frame=  491 fps=316 q=-0.0 size=N/A time=00:00:20.47 bitrate=N/A speed=13.2x    frame=  742 fps=360 q=-0.0 size=N/A time=00:00:30.94 bitrate=N/A speed=  15x    frame=  989 fps=384 q=-0.0 size=N/A time=00:00:41.24 bitrate=N/A speed=  16x    frame= 1235 fps=399 q=-0.0 size=N/A time=00:00:51.50 bitrate=N/A speed=16.6x    frame= 1449 fps=402 q=-0.0 size=N/A time=00:01:00.43 bitrate=N/A speed=16.8x    frame= 1637 fps=396 q=-0.0 size=N/A time=00:01:08.27 bitrate=N/A speed=16.5x    frame= 1804 fps=389 q=-0.0 size=N/A time=00:01:15.24 bitrate=N/A speed=16.2x    frame= 1963 fps=380 q=-0.0 size=N/A time=00:01:21.87 bitrate=N/A speed=15.9x    frame= 2133 fps=376 q=-0.0 size=N/A time=00:01:28.96 bitrate=N/A speed=15.7x    frame= 2321 fps=375 q=-0.0 size=N/A time=00:01:36.80 bitrate=N/A speed=15.6x    frame= 2471 fps=369 q=-0.0 size=N/A time=00:01:43.06 bitrate=N/A speed=15.4x    frame= 2605 fps=361 q=-0.0 size=N/A time=00:01:48.65 bitrate=N/A speed=  15x    frame= 2746 fps=355 q=-0.0 size=N/A time=00:01:54.53 bitrate=N/A speed=14.8x    frame= 2929 fps=355 q=-0.0 size=N/A time=00:02:02.16 bitrate=N/A speed=14.8x    frame= 3114 fps=355 q=-0.0 size=N/A time=00:02:09.87 bitrate=N/A speed=14.8x    frame= 3352 fps=361 q=-0.0 size=N/A time=00:02:19.80 bitrate=N/A speed=15.1x    frame= 3563 fps=364 q=-0.0 size=N/A time=00:02:28.60 bitrate=N/A speed=15.2x    frame= 3798 fps=368 q=-0.0 size=N/A time=00:02:38.40 bitrate=N/A speed=15.4x    frame= 4035 fps=373 q=-0.0 size=N/A time=00:02:48.29 bitrate=N/A speed=15.5x    frame= 4248 fps=374 q=-0.0 size=N/A time=00:02:57.17 bitrate=N/A speed=15.6x    frame= 4462 fps=376 q=-0.0 size=N/A time=00:03:06.10 bitrate=N/A speed=15.7x    frame= 4696 fps=379 q=-0.0 size=N/A time=00:03:15.86 bitrate=N/A speed=15.8x    frame= 4951 fps=384 q=-0.0 size=N/A time=00:03:26.49 bitrate=N/A speed=  16x    frame= 5173 fps=385 q=-0.0 size=N/A time=00:03:35.75 bitrate=N/A speed=16.1x    frame= 5413 fps=388 q=-0.0 size=N/A time=00:03:45.76 bitrate=N/A speed=16.2x    frame= 5674 fps=392 q=-0.0 size=N/A time=00:03:56.65 bitrate=N/A speed=16.4x    frame= 5926 fps=396 q=-0.0 size=N/A time=00:04:07.16 bitrate=N/A speed=16.5x    frame= 6174 fps=399 q=-0.0 size=N/A time=00:04:17.50 bitrate=N/A speed=16.6x    frame= 6433 fps=402 q=-0.0 size=N/A time=00:04:28.30 bitrate=N/A speed=16.8x    frame= 6690 fps=405 q=-0.0 size=N/A time=00:04:39.02 bitrate=N/A speed=16.9x    frame= 6951 fps=408 q=-0.0 size=N/A time=00:04:49.91 bitrate=N/A speed=  17x    frame= 7213 fps=411 q=-0.0 size=N/A time=00:05:00.84 bitrate=N/A speed=17.1x    frame= 7463 fps=413 q=-0.0 size=N/A time=00:05:11.26 bitrate=N/A speed=17.2x    frame= 7732 fps=416 q=-0.0 size=N/A time=00:05:22.48 bitrate=N/A speed=17.3x    frame= 7993 fps=419 q=-0.0 size=N/A time=00:05:33.37 bitrate=N/A speed=17.5x    frame= 8264 fps=421 q=-0.0 size=N/A time=00:05:44.67 bitrate=N/A speed=17.6x    frame= 8522 fps=423 q=-0.0 size=N/A time=00:05:55.43 bitrate=N/A speed=17.7x    frame= 8769 fps=425 q=-0.0 size=N/A time=00:06:05.74 bitrate=N/A speed=17.7x    frame= 9028 fps=427 q=-0.0 size=N/A time=00:06:16.54 bitrate=N/A speed=17.8x    frame= 9277 fps=428 q=-0.0 size=N/A time=00:06:26.92 bitrate=N/A speed=17.8x    frame= 9519 fps=429 q=-0.0 size=N/A time=00:06:37.02 bitrate=N/A speed=17.9x    frame= 9756 fps=430 q=-0.0 size=N/A time=00:06:46.90 bitrate=N/A speed=17.9x    frame=10008 fps=431 q=-0.0 size=N/A time=00:06:57.41 bitrate=N/A speed=  18x    frame=10263 fps=432 q=-0.0 size=N/A time=00:07:08.05 bitrate=N/A speed=  18x    frame=10514 fps=433 q=-0.0 size=N/A time=00:07:18.56 bitrate=N/A speed=18.1x    frame=10768 fps=435 q=-0.0 size=N/A time=00:07:29.11 bitrate=N/A speed=18.1x    frame=11019 fps=436 q=-0.0 size=N/A time=00:07:39.58 bitrate=N/A speed=18.2x    frame=11255 fps=436 q=-0.0 size=N/A time=00:07:49.42 bitrate=N/A speed=18.2x    frame=11494 fps=437 q=-0.0 size=N/A time=00:07:59.39 bitrate=N/A speed=18.2x    frame=11748 fps=438 q=-0.0 size=N/A time=00:08:09.98 bitrate=N/A speed=18.2x    frame=11997 fps=439 q=-0.0 size=N/A time=00:08:20.37 bitrate=N/A speed=18.3x    frame=12258 fps=440 q=-0.0 size=N/A time=00:08:31.26 bitrate=N/A speed=18.3x    frame=12482 fps=440 q=-0.0 size=N/A time=00:08:40.60 bitrate=N/A speed=18.3x    frame=12736 fps=440 q=-0.0 size=N/A time=00:08:51.19 bitrate=N/A speed=18.4x    frame=12987 fps=441 q=-0.0 size=N/A time=00:09:01.66 bitrate=N/A speed=18.4x    frame=13250 fps=442 q=-0.0 size=N/A time=00:09:12.63 bitrate=N/A speed=18.5x    frame=13499 fps=443 q=-0.0 size=N/A time=00:09:23.02 bitrate=N/A speed=18.5x    frame=13749 fps=444 q=-0.0 size=N/A time=00:09:33.44 bitrate=N/A speed=18.5x    frame=14007 fps=445 q=-0.0 size=N/A time=00:09:44.20 bitrate=N/A speed=18.6x    frame=14219 fps=444 q=-0.0 size=N/A time=00:09:53.05 bitrate=N/A speed=18.5x    frame=14441 fps=444 q=-0.0 size=N/A time=00:10:02.31 bitrate=N/A speed=18.5x    frame=14675 fps=444 q=-0.0 size=N/A time=00:10:12.06 bitrate=N/A speed=18.5x    frame=14911 fps=444 q=-0.0 size=N/A time=00:10:21.91 bitrate=N/A speed=18.5x    frame=15143 fps=444 q=-0.0 size=N/A time=00:10:31.58 bitrate=N/A speed=18.5x    frame=15361 fps=444 q=-0.0 size=N/A time=00:10:40.68 bitrate=N/A speed=18.5x    frame=15627 fps=445 q=-0.0 size=N/A time=00:10:51.77 bitrate=N/A speed=18.6x    frame=15884 fps=446 q=-0.0 size=N/A time=00:11:02.49 bitrate=N/A speed=18.6x    frame=16059 fps=444 q=-0.0 size=N/A time=00:11:09.79 bitrate=N/A speed=18.5x    frame=16273 fps=444 q=-0.0 size=N/A time=00:11:18.71 bitrate=N/A speed=18.5x    frame=16511 fps=444 q=-0.0 size=N/A time=00:11:28.64 bitrate=N/A speed=18.5x    frame=16739 fps=444 q=-0.0 size=N/A time=00:11:38.15 bitrate=N/A speed=18.5x    frame=16999 fps=445 q=-0.0 size=N/A time=00:11:48.99 bitrate=N/A speed=18.6x    frame=17255 fps=446 q=-0.0 size=N/A time=00:11:59.67 bitrate=N/A speed=18.6x    frame=17494 fps=446 q=-0.0 size=N/A time=00:12:09.64 bitrate=N/A speed=18.6x    frame=17752 fps=447 q=-0.0 size=N/A time=00:12:20.40 bitrate=N/A speed=18.6x    frame=17968 fps=446 q=-0.0 size=N/A time=00:12:29.41 bitrate=N/A speed=18.6x    frame=18208 fps=446 q=-0.0 size=N/A time=00:12:39.42 bitrate=N/A speed=18.6x    frame=18422 fps=446 q=-0.0 size=N/A time=00:12:48.35 bitrate=N/A speed=18.6x    frame=18671 fps=446 q=-0.0 size=N/A time=00:12:58.73 bitrate=N/A speed=18.6x    frame=18903 fps=447 q=-0.0 size=N/A time=00:13:08.41 bitrate=N/A speed=18.6x    frame=19124 fps=446 q=-0.0 size=N/A time=00:13:17.63 bitrate=N/A speed=18.6x    frame=19341 fps=446 q=-0.0 size=N/A time=00:13:26.68 bitrate=N/A speed=18.6x    frame=19560 fps=446 q=-0.0 size=N/A time=00:13:35.81 bitrate=N/A speed=18.6x    frame=19801 fps=446 q=-0.0 size=N/A time=00:13:45.86 bitrate=N/A speed=18.6x    frame=20051 fps=447 q=-0.0 size=N/A time=00:13:56.29 bitrate=N/A speed=18.6x    frame=20304 fps=447 q=-0.0 size=N/A time=00:14:06.84 bitrate=N/A speed=18.6x    frame=20534 fps=447 q=-0.0 size=N/A time=00:14:16.43 bitrate=N/A speed=18.6x    frame=20770 fps=447 q=-0.0 size=N/A time=00:14:26.28 bitrate=N/A speed=18.7x    frame=20980 fps=447 q=-0.0 size=N/A time=00:14:35.04 bitrate=N/A speed=18.6x    frame=21186 fps=446 q=-0.0 size=N/A time=00:14:43.63 bitrate=N/A speed=18.6x    frame=21404 fps=446 q=-0.0 size=N/A time=00:14:52.72 bitrate=N/A speed=18.6x    frame=21627 fps=446 q=-0.0 size=N/A time=00:15:02.02 bitrate=N/A speed=18.6x    frame=21855 fps=446 q=-0.0 size=N/A time=00:15:11.53 bitrate=N/A speed=18.6x    frame=22087 fps=446 q=-0.0 size=N/A time=00:15:21.21 bitrate=N/A speed=18.6x    frame=22286 fps=445 q=-0.0 size=N/A time=00:15:29.51 bitrate=N/A speed=18.6x    frame=22527 fps=445 q=-0.0 size=N/A time=00:15:39.56 bitrate=N/A speed=18.6x    frame=22760 fps=445 q=-0.0 size=N/A time=00:15:49.28 bitrate=N/A speed=18.6x    frame=22972 fps=445 q=-0.0 size=N/A time=00:15:58.12 bitrate=N/A speed=18.6x    frame=23223 fps=446 q=-0.0 size=N/A time=00:16:08.59 bitrate=N/A speed=18.6x    frame=23454 fps=446 q=-0.0 size=N/A time=00:16:18.22 bitrate=N/A speed=18.6x    frame=23691 fps=446 q=-0.0 size=N/A time=00:16:28.11 bitrate=N/A speed=18.6x    frame=23898 fps=445 q=-0.0 size=N/A time=00:16:36.74 bitrate=N/A speed=18.6x    frame=24099 fps=445 q=-0.0 size=N/A time=00:16:45.12 bitrate=N/A speed=18.6x    frame=24310 fps=444 q=-0.0 size=N/A time=00:16:53.92 bitrate=N/A speed=18.5x    frame=24504 fps=444 q=-0.0 size=N/A time=00:17:02.02 bitrate=N/A speed=18.5x    frame=24751 fps=444 q=-0.0 size=N/A time=00:17:12.32 bitrate=N/A speed=18.5x    frame=24965 fps=444 q=-0.0 size=N/A time=00:17:21.24 bitrate=N/A speed=18.5x    frame=25222 fps=444 q=-0.0 size=N/A time=00:17:31.96 bitrate=N/A speed=18.5x    frame=25414 fps=444 q=-0.0 size=N/A time=00:17:39.97 bitrate=N/A speed=18.5x    frame=25625 fps=443 q=-0.0 size=N/A time=00:17:48.77 bitrate=N/A speed=18.5x    frame=25867 fps=444 q=-0.0 size=N/A time=00:17:58.86 bitrate=N/A speed=18.5x    frame=26098 fps=444 q=-0.0 size=N/A time=00:18:08.50 bitrate=N/A speed=18.5x    frame=26335 fps=444 q=-0.0 size=N/A time=00:18:18.38 bitrate=N/A speed=18.5x    frame=26525 fps=443 q=-0.0 size=N/A time=00:18:26.31 bitrate=N/A speed=18.5x    frame=26745 fps=443 q=-0.0 size=N/A time=00:18:35.48 bitrate=N/A speed=18.5x    frame=26989 fps=443 q=-0.0 size=N/A time=00:18:45.66 bitrate=N/A speed=18.5x    frame=27163 fps=442 q=-0.0 size=N/A time=00:18:52.92 bitrate=N/A speed=18.4x    frame=27365 fps=442 q=-0.0 size=N/A time=00:19:01.34 bitrate=N/A speed=18.4x    frame=27556 fps=441 q=-0.0 size=N/A time=00:19:09.31 bitrate=N/A speed=18.4x    frame=27753 fps=441 q=-0.0 size=N/A time=00:19:17.53 bitrate=N/A speed=18.4x    frame=27981 fps=441 q=-0.0 size=N/A time=00:19:27.04 bitrate=N/A speed=18.4x    frame=28234 fps=441 q=-0.0 size=N/A time=00:19:37.59 bitrate=N/A speed=18.4x    frame=28478 fps=442 q=-0.0 size=N/A time=00:19:47.76 bitrate=N/A speed=18.4x    frame=28751 fps=442 q=-0.0 size=N/A time=00:19:59.15 bitrate=N/A speed=18.4x    frame=29013 fps=443 q=-0.0 size=N/A time=00:20:10.08 bitrate=N/A speed=18.5x    frame=29267 fps=443 q=-0.0 size=N/A time=00:20:20.67 bitrate=N/A speed=18.5x    frame=29522 fps=443 q=-0.0 size=N/A time=00:20:31.35 bitrate=N/A speed=18.5x    frame=29731 fps=443 q=-0.0 size=N/A time=00:20:40.03 bitrate=N/A speed=18.5x    frame=29947 fps=443 q=-0.0 size=N/A time=00:20:49.03 bitrate=N/A speed=18.5x    frame=30191 fps=443 q=-0.0 size=N/A time=00:20:59.21 bitrate=N/A speed=18.5x    frame=30435 fps=443 q=-0.0 size=N/A time=00:21:09.39 bitrate=N/A speed=18.5x    frame=30660 fps=443 q=-0.0 size=N/A time=00:21:18.77 bitrate=N/A speed=18.5x    frame=30860 fps=443 q=-0.0 size=N/A time=00:21:27.11 bitrate=N/A speed=18.5x    frame=31046 fps=442 q=-0.0 size=N/A time=00:21:34.87 bitrate=N/A speed=18.5x    frame=31248 fps=442 q=-0.0 size=N/A time=00:21:43.30 bitrate=N/A speed=18.4x    frame=31468 fps=442 q=-0.0 size=N/A time=00:21:52.47 bitrate=N/A speed=18.4x    frame=31741 fps=443 q=-0.0 size=N/A time=00:22:03.86 bitrate=N/A speed=18.5x    frame=31920 fps=442 q=-0.0 size=N/A time=00:22:11.33 bitrate=N/A speed=18.4x    frame=32152 fps=442 q=-0.0 size=N/A time=00:22:21.00 bitrate=N/A speed=18.4x    frame=32362 fps=442 q=-0.0 size=N/A time=00:22:29.76 bitrate=N/A speed=18.4x    frame=32578 fps=442 q=-0.0 size=N/A time=00:22:38.77 bitrate=N/A speed=18.4x    frame=32781 fps=441 q=-0.0 size=N/A time=00:22:47.24 bitrate=N/A speed=18.4x    frame=32972 fps=441 q=-0.0 size=N/A time=00:22:55.20 bitrate=N/A speed=18.4x    frame=33156 fps=440 q=-0.0 size=N/A time=00:23:02.88 bitrate=N/A speed=18.4x    frame=33315 fps=439 q=-0.0 size=N/A time=00:23:09.51 bitrate=N/A speed=18.3x    frame=33528 fps=439 q=-0.0 size=N/A time=00:23:18.39 bitrate=N/A speed=18.3x    frame=33773 fps=439 q=-0.0 size=N/A time=00:23:28.61 bitrate=N/A speed=18.3x    frame=34011 fps=439 q=-0.0 size=N/A time=00:23:38.54 bitrate=N/A speed=18.3x    frame=34255 fps=440 q=-0.0 size=N/A time=00:23:48.71 bitrate=N/A speed=18.3x    [Parsed_ssim_10 @ 00000203c1119280] SSIM Y:0.993298 (21.737673) U:0.992871 (21.469823) V:0.992676 (21.352676) All:0.993123 (21.625978)
[out#0/null @ 00000203c1084ac0] video:14722KiB audio:267956KiB subtitle:0KiB other streams:0KiB global headers:0KiB muxing overhead: unknown
frame=34261 fps=440 q=-0.0 Lsize=N/A time=00:23:48.96 bitrate=N/A speed=18.3x    
